<svg  xmlns="http://www.w3.org/2000/svg"  width="24"  height="24"  viewBox="0 0 24 24"  fill="none"  stroke="currentColor"  stroke-width="2"  stroke-linecap="round"  stroke-linejoin="round"  class="icon icon-tabler icons-tabler-outline icon-tabler-csdn"><path stroke="none" d="M0 0h24v24H0z" fill="none"/><path d="M4 6.5c0 -1.38 1.12 -2.5 2.5 -2.5h11c1.38 0 2.5 1.12 2.5 2.5v11c0 1.38 -1.12 2.5 -2.5 2.5h-11c-1.38 0 -2.5 -1.12 -2.5 -2.5v-11z" /><path d="M8 8h2.5c1.38 0 2.5 1.12 2.5 2.5v0c0 1.38 -1.12 2.5 -2.5 2.5h-2.5" /><path d="M14 8h2" /><path d="M15 8v5" /><path d="M14 13h2" /></svg>
